<svg id="Layer_2" data-name="Layer 2" xmlns="http://www.w3.org/2000/svg" viewBox="0 0 144.86 144.21"><defs><style>.cls-1,.cls-3{fill:#231f20;}.cls-1,.cls-2{stroke:#231f20;stroke-miterlimit:10;}.cls-2{fill:#fff;}</style></defs><path class="cls-1" d="M50.28,2.77C50,2.31,25.58,12,11.83,36.92A75.12,75.12,0,0,0,2.59,73.71a74.82,74.82,0,0,0,15.54,43.94A73.57,73.57,0,0,0,43.68,138.9c16.63,8.07,32,7.1,32,6.93a67.41,67.41,0,0,1-25.58-6.27,68.05,68.05,0,0,1-22.44-17.65c-5.1-5.83-19.29-22.53-20.3-47.86a75.2,75.2,0,0,1,8.42-37C28.4,12.87,50.6,3.21,50.28,2.77Z" transform="translate(-2.08 -2.25)"/><path class="cls-1" d="M12.5,66.79c-.77.24-1.12,37.52,27.39,59.41,6.07,4.66,22.93,15.91,45.54,13.69,19-1.86,31.45-12.2,35.32-15.51,11.39-9.75,16.33-20.79,18.91-26.74,7.44-17.13,6.84-32,6.73-32.06a67.55,67.55,0,0,1-6.11,25.62,68.87,68.87,0,0,1-17.51,22.55c-5,4.29-19.32,16.12-41.13,17.07-3.75.16-23.39.69-40.82-12.23C15.61,99.89,13.22,66.57,12.5,66.79Z" transform="translate(-2.08 -2.25)"/><path class="cls-2" d="M89.06,90.22" transform="translate(-2.08 -2.25)"/><path class="cls-3" d="M26.79,48.63V83.3H22.33V48.63Z" transform="translate(-2.08 -2.25)"/><path class="cls-3" d="M55.85,46.78V76.87c0,2.22,0,4.74.21,6.43H52L51.8,79h-.1a9.17,9.17,0,0,1-8.46,4.89c-6,0-10.61-5.09-10.61-12.65-.05-8.29,5.08-13.38,11.13-13.38,3.79,0,6.35,1.8,7.48,3.81h.1V46.78ZM51.34,68.54a8.18,8.18,0,0,0-.2-1.9,6.65,6.65,0,0,0-6.51-5.25C40,61.39,37.2,65.51,37.2,71c0,5,2.46,9.21,7.33,9.21a6.79,6.79,0,0,0,6.61-5.4,8.14,8.14,0,0,0,.2-2Z" transform="translate(-2.08 -2.25)"/><path class="cls-3" d="M65.85,71.68c.1,6.12,4,8.64,8.5,8.64A16.25,16.25,0,0,0,81.22,79L82,82.28a20.06,20.06,0,0,1-8.25,1.54c-7.64,0-12.2-5-12.2-12.55S66,57.84,73.17,57.84c8.1,0,10.26,7.15,10.26,11.73a17,17,0,0,1-.16,2.11Zm13.22-3.24c.05-2.88-1.18-7.36-6.25-7.36-4.57,0-6.56,4.22-6.92,7.36Z" transform="translate(-2.08 -2.25)"/><path class="cls-3" d="M102.75,83.3l-.36-3.13h-.16a9.23,9.23,0,0,1-7.58,3.7c-5,0-7.59-3.55-7.59-7.15,0-6,5.33-9.31,14.92-9.26V67c0-2.06-.57-5.76-5.64-5.76A12.33,12.33,0,0,0,89.88,63l-1-3A15.41,15.41,0,0,1,97,57.84c7.58,0,9.43,5.2,9.43,10.19v9.31a34.79,34.79,0,0,0,.41,6Zm-.67-12.7c-4.92-.1-10.51.77-10.51,5.61a4,4,0,0,0,4.26,4.32,6.16,6.16,0,0,0,6-4.17,4.56,4.56,0,0,0,.26-1.44Z" transform="translate(-2.08 -2.25)"/><path class="cls-3" d="M113.71,46.78h4.51V83.3h-4.51Z" transform="translate(-2.08 -2.25)"/><path class="cls-3" d="M124.53,82.89V77.25h-1v-.9h1V76a2.9,2.9,0,0,1,.85-2.29,2.76,2.76,0,0,1,1.79-.61,3.58,3.58,0,0,1,1.14.19l-.18.92a2.23,2.23,0,0,0-.85-.15c-1.14,0-1.43.89-1.43,1.89v.36h1.78v.9h-1.78v5.64Z" transform="translate(-2.08 -2.25)"/><path class="cls-3" d="M129.37,79.83a2.25,2.25,0,0,0,2.52,2.28,5.34,5.34,0,0,0,2-.34l.22.85a6.57,6.57,0,0,1-2.44.4c-2.26,0-3.61-1.32-3.61-3.29a3.32,3.32,0,0,1,3.44-3.53,2.89,2.89,0,0,1,3,3.08,3.22,3.22,0,0,1-.05.55Zm3.92-.85a1.76,1.76,0,0,0-1.85-1.93A2.07,2.07,0,0,0,129.39,79Z" transform="translate(-2.08 -2.25)"/><path class="cls-3" d="M142.58,73.29V81.2c0,.58,0,1.24.06,1.69h-1.2l-.06-1.14h0A2.8,2.8,0,0,1,138.84,83a3.13,3.13,0,0,1-3.14-3.33A3.28,3.28,0,0,1,139,76.2a2.53,2.53,0,0,1,2.21,1h0V73.29ZM141.24,79a1.71,1.71,0,0,0-.06-.5,1.92,1.92,0,0,0-1.93-1.38,2.25,2.25,0,0,0-2.2,2.53,2.17,2.17,0,0,0,2.17,2.42,2,2,0,0,0,2-1.42,1.7,1.7,0,0,0,.06-.51Z" transform="translate(-2.08 -2.25)"/></svg>